<svg id="Page-1" xmlns="http://www.w3.org/2000/svg" width="682.457" height="511.766" viewBox="0 0 682.457 511.766">
  <g id="_018---Latte-Art" data-name="018---Latte-Art" transform="translate(0)">
    <path id="Shape" d="M284.314,511.766c86.307,0,154.553-25.1,202.853-74.581A237.358,237.358,0,0,0,514.928,402.5a126.45,126.45,0,0,1,31.013-11.111c4.276-.989,8.836-1.967,13.647-2.98,44.842-9.564,112.589-24.019,121.766-91.185a104.821,104.821,0,0,0,.955-14.147c0-.125.068-.227.068-.353V230.295a63.766,63.766,0,0,0-25.6-54.315c-24.462-17.684-60.07-17.332-89.32-10.3C554.516,72.955,432.511,0,284.315,0,127.544,0,0,81.632,0,181.961c0,1.069.1,2.115.125,3.173C-1.205,247.5,7.779,361.648,81.5,437.185c48.311,49.482,116.558,74.581,202.819,74.581ZM470.893,421.3c-43.83,44.979-106.607,67.724-186.579,67.724S141.634,466.276,97.8,421.3C53.1,375.5,34.322,313.394,27.01,259.227c45.456,61.8,143.681,104.7,257.3,104.7s212.03-42.977,257.453-104.867c-7.256,54-26.021,116.319-70.84,162.241ZM658.757,294.152c-6.994,51.313-60.764,62.788-103.968,72.011-4.89,1.046-9.576,2.036-13.943,3.048-2.786.637-5.447,1.376-8.109,2.115A377.057,377.057,0,0,0,566.559,242c31.707-9.166,62.8-6.892,78.9,6.38,11.68,9.6,16.16,25,13.329,45.775ZM643.4,194.414a41.465,41.465,0,0,1,16.206,35.88v.3c-24.246-19.709-60.673-19.891-91.424-12.578.444-10.5.557-20.255.432-29.08,29.762-8.188,58.546-6.3,74.82,5.538ZM284.314,22.745c143.295,0,259.9,70.51,261.49,157.419v.2a1.674,1.674,0,0,0,.068.523v1.069c0,87.8-117.331,159.216-261.569,159.216-142.589,0-258.829-69.828-261.433-156.259v-1.706c0-.2-.114-.375-.114-.569v-.682C22.745,94.165,140.076,22.745,284.314,22.745Z" transform="translate(0)"/>
    <path id="Shape-2" data-name="Shape" d="M183.289,91.4c-67.212,0-119.037-18.2-154.019-54.02A11.388,11.388,0,0,0,12.985,53.3c39.52,40.373,96.758,60.843,170.3,60.843a11.373,11.373,0,1,0,0-22.745Z" transform="translate(101.025 352.135)"/>
    <path id="Shape-3" data-name="Shape" d="M22,190.331A11.386,11.386,0,0,0,40.392,176.9a61.958,61.958,0,0,1-13.647-36.392c0-53.69,92.414-113.726,216.079-113.726A325.8,325.8,0,0,1,383.844,56.35,11.373,11.373,0,0,0,393.75,35.88,348.661,348.661,0,0,0,242.824,4.036C99.962,4.036,4,74.546,4,140.507A84,84,0,0,0,22,190.33Z" transform="translate(41.49 41.454)"/>
    <path id="Shape-4" data-name="Shape" d="M400.416,76.649c0,53.69-92.414,113.726-216.079,113.726A314.658,314.658,0,0,1,27.031,152.151a11.373,11.373,0,1,0-11.555,19.584,337.39,337.39,0,0,0,168.86,41.385c142.862,0,238.824-70.51,238.824-136.471A93.255,93.255,0,0,0,394.48,13.815a11.373,11.373,0,1,0-16.559,15.592,71.306,71.306,0,0,1,22.495,47.242Z" transform="translate(99.978 105.313)"/>
    <path id="Shape-5" data-name="Shape" d="M149.471,189.972c76.526,0,136.471-34.971,136.471-79.608a11.373,11.373,0,1,0-22.745,0c0,28.909-45.809,53.61-102.353,56.567v-23c35.96-2.65,60.2-17.173,66.382-27.886a10.986,10.986,0,0,0-3.923-14.864,11.771,11.771,0,0,0-15.66,3.321,76.663,76.663,0,0,1-46.8,16.684V95.875c45.092-14.568,68.236-32.594,68.236-53.747,0-19.447-19.561-34.118-45.49-34.118a71.136,71.136,0,0,0-34.118,8.029A71.136,71.136,0,0,0,115.353,8.01c-25.93,0-45.49,14.671-45.49,34.118,0,21.153,23.143,39.179,68.235,53.747V121.19a77.47,77.47,0,0,1-46.7-16.513A11.373,11.373,0,1,0,71.717,116.05c6.187,10.713,30.422,25.236,66.382,27.886v23c-56.544-2.957-102.353-27.658-102.353-56.567a11.373,11.373,0,0,0-22.745,0C13,155,72.945,189.971,149.471,189.971ZM92.608,42.128c0-4.651,8.1-11.373,22.745-11.373A43.216,43.216,0,0,1,142.022,38.2a11.555,11.555,0,0,0,14.887,0,43.079,43.079,0,0,1,26.68-7.449c14.648,0,22.745,6.721,22.745,11.373,0,6.107-12.078,19.9-56.863,33.617C104.7,62.03,92.608,48.235,92.608,42.128Z" transform="translate(134.844 82.97)"/>
  </g>
</svg>
