<svg xmlns="http://www.w3.org/2000/svg" width="376.94" height="511.766" viewBox="0 0 376.94 511.766">
  <g id="beer-mug" transform="translate(-67.413)">
    <path id="Path_14721" data-name="Path 14721" d="M227.831,229.925H216.055A17.6,17.6,0,0,0,198.477,247.5V452.632a17.6,17.6,0,0,0,17.578,17.578h11.776a17.6,17.6,0,0,0,17.578-17.578V247.5a17.6,17.6,0,0,0-17.578-17.578Zm2.578,222.707a2.58,2.58,0,0,1-2.578,2.578H216.055a2.581,2.581,0,0,1-2.578-2.578V247.5a2.58,2.58,0,0,1,2.578-2.578h11.776a2.581,2.581,0,0,1,2.578,2.578Z"/>
    <path id="Path_14722" data-name="Path 14722" d="M164.525,280.561a7.5,7.5,0,0,0-7.5,7.5V452.633a2.58,2.58,0,0,1-2.578,2.577H142.671a2.581,2.581,0,0,1-2.578-2.577V286.2a7.5,7.5,0,0,0-15,0V452.633a17.6,17.6,0,0,0,17.578,17.577h11.776a17.6,17.6,0,0,0,17.578-17.577V288.061a7.5,7.5,0,0,0-7.5-7.5Z"/>
    <path id="Path_14723" data-name="Path 14723" d="M302.216,229.926H290.44A17.6,17.6,0,0,0,272.863,247.5v64.148a7.5,7.5,0,0,0,15,0V247.5a2.58,2.58,0,0,1,2.577-2.577h11.776a2.58,2.58,0,0,1,2.578,2.577v205.13a2.58,2.58,0,0,1-2.578,2.577H290.44a2.58,2.58,0,0,1-2.577-2.577V343.613a7.5,7.5,0,0,0-15,0v109.02A17.6,17.6,0,0,0,290.44,470.21h11.776a17.6,17.6,0,0,0,17.578-17.577V247.5A17.6,17.6,0,0,0,302.216,229.926Z"/>
    <path id="Path_14724" data-name="Path 14724" d="M401.727,170.326H357.932V153.805A37.741,37.741,0,0,0,339.724,83h-11.1V78.717a37.791,37.791,0,0,0-37.748-37.748H268.141a45.971,45.971,0,0,0-91.4,0H154.012a37.791,37.791,0,0,0-37.748,37.748V83h-11.1A37.736,37.736,0,0,0,85.954,153.23V462.374a49.448,49.448,0,0,0,49.391,49.392h173.2a49.448,49.448,0,0,0,49.392-49.392V414.582h43.8a42.673,42.673,0,0,0,42.625-42.625V212.951a42.674,42.674,0,0,0-42.626-42.625ZM105.162,98h18.6a7.5,7.5,0,0,0,7.5-7.5V78.717a22.774,22.774,0,0,1,22.748-22.748h27.462a10.012,10.012,0,0,0,10-10,30.968,30.968,0,0,1,61.936,0,10.013,10.013,0,0,0,10,10h27.462a22.774,22.774,0,0,1,22.748,22.748V90.5a7.5,7.5,0,0,0,7.5,7.5h18.6a22.748,22.748,0,0,1,0,45.5H218.035a53.485,53.485,0,0,0-53.486,53.485V239.1a13.206,13.206,0,0,1-26.412,0V159.981A16.5,16.5,0,0,0,121.655,143.5H105.161a22.748,22.748,0,1,1,0-45.5Zm0,60.5h16.494a1.484,1.484,0,0,1,1.482,1.481v22.944H100.954V158.26a37.961,37.961,0,0,0,4.207.24Zm203.38,338.266h-173.2a34.431,34.431,0,0,1-34.391-34.392V197.926h22.183V239.1a28.206,28.206,0,0,0,56.412,0V197.926h100.8a7.5,7.5,0,0,0,0-15H182.2A38.527,38.527,0,0,1,218.034,158.5h121.69c1.081,0,2.149-.056,3.208-.146v24.572H312.308a7.5,7.5,0,0,0,0,15h30.624V462.375A34.43,34.43,0,0,1,308.541,496.766ZM429.352,371.957a27.657,27.657,0,0,1-27.625,27.625H357.932v-17h43.795a10.638,10.638,0,0,0,10.625-10.625V280.24a7.5,7.5,0,0,0-15,0v87.342h-39.42V217.326h39.42v30.952a7.5,7.5,0,0,0,15,0V212.951a10.638,10.638,0,0,0-10.625-10.625H357.932v-17h43.795a27.657,27.657,0,0,1,27.625,27.625Z"/>
  </g>
</svg>
