<svg xmlns="http://www.w3.org/2000/svg" width="74.272" height="92.915" viewBox="0 0 74.272 92.915">
  <g id="Layer_15" data-name="Layer 15" transform="translate(-4.793 94.912) rotate(-90)">
    <path id="Path_308" data-name="Path 308" d="M35.041,79a3.318,3.318,0,0,0,3.318-3.318V65.367a12.64,12.64,0,0,0,0-24.418V8.138a3.318,3.318,0,0,0-6.635,0V40.982a12.64,12.64,0,0,0,0,24.418V75.718A3.318,3.318,0,0,0,35.041,79ZM28.97,53.158a6.071,6.071,0,1,1,6.071,6.071A6.071,6.071,0,0,1,28.97,53.158Z" transform="translate(47.187 0.063)"/>
    <path id="Path_309" data-name="Path 309" d="M24.877,79.065a3.318,3.318,0,0,0,3.318-3.318V29.765a12.707,12.707,0,1,0-6.635,0V75.748A3.318,3.318,0,0,0,24.877,79.065ZM18.806,17.589a6.071,6.071,0,1,1,6.071,6.038,6.071,6.071,0,0,1-6.071-6.038Z" transform="translate(23.577)"/>
    <path id="Path_310" data-name="Path 310" d="M11.363,54.12V75.685a3.318,3.318,0,0,0,6.635,0V54.12A12.64,12.64,0,0,0,18,29.7V8.138a3.318,3.318,0,0,0-6.635,0V29.7a12.64,12.64,0,0,0,0,24.418Zm3.318-18.28a6.071,6.071,0,1,1-6.038,6.071,6.071,6.071,0,0,1,6.038-6.071Z" transform="translate(0 0.063)"/>
  </g>
</svg>
