<svg id="pizza" xmlns="http://www.w3.org/2000/svg" width="554.184" height="555.202" viewBox="0 0 554.184 555.202">
  <path id="Path_14705" data-name="Path 14705" d="M276.732,403.271a40.372,40.372,0,1,0-40.372,40.367A40.42,40.42,0,0,0,276.732,403.271Zm-64.479,0a24.106,24.106,0,1,1,24.107,24.1A24.134,24.134,0,0,1,212.254,403.271Zm0,0" transform="translate(16.537 30.621)"/>
  <path id="Path_14706" data-name="Path 14706" d="M143.668,315.758a40.37,40.37,0,1,0,40.372,40.368A40.413,40.413,0,0,0,143.668,315.758Zm0,64.475a24.1,24.1,0,1,1,24.106-24.107A24.133,24.133,0,0,1,143.668,380.233Zm0,0" transform="translate(8.716 26.643)"/>
  <path id="Path_14707" data-name="Path 14707" d="M168.134,162.625A40.372,40.372,0,1,0,208.5,203,40.417,40.417,0,0,0,168.134,162.625Zm0,64.478A24.106,24.106,0,1,1,192.236,203,24.134,24.134,0,0,1,168.134,227.1Zm0,0" transform="translate(10.78 13.722)"/>
  <path id="Path_14708" data-name="Path 14708" d="M270.924,102.259a40.37,40.37,0,1,0-40.372,40.372A40.42,40.42,0,0,0,270.924,102.259Zm-64.478,0a24.106,24.106,0,1,1,24.107,24.106A24.134,24.134,0,0,1,206.446,102.259Zm0,0" transform="translate(16.047 5.221)"/>
  <path id="Path_14709" data-name="Path 14709" d="M399,137.8a24.253,24.253,0,1,0-24.251,24.25A24.277,24.277,0,0,0,399,137.8Zm-32.24,0a7.987,7.987,0,1,1,7.989,7.985A7.994,7.994,0,0,1,366.765,137.8Zm0,0" transform="translate(29.574 9.581)"/>
  <path id="Path_14710" data-name="Path 14710" d="M326.914,190.75A24.252,24.252,0,1,0,351.169,215,24.277,24.277,0,0,0,326.914,190.75Zm0,32.239A7.987,7.987,0,1,1,334.9,215,8,8,0,0,1,326.914,222.989Zm0,0" transform="translate(25.538 16.095)"/>
  <path id="Path_14711" data-name="Path 14711" d="M309.477,117.458a24.252,24.252,0,1,0-24.25-24.25A24.277,24.277,0,0,0,309.477,117.458Zm0-32.239a7.987,7.987,0,1,1-7.985,7.989A8,8,0,0,1,309.477,85.219Zm0,0" transform="translate(24.067 5.817)"/>
  <path id="Path_14712" data-name="Path 14712" d="M233.164,175.45a24.252,24.252,0,1,0,24.255-24.25A24.284,24.284,0,0,0,233.164,175.45Zm32.24,0a7.987,7.987,0,1,1-7.989-7.984A8,8,0,0,1,265.4,175.45Zm0,0" transform="translate(19.674 12.757)"/>
  <path id="Path_14713" data-name="Path 14713" d="M90.848,196.75A24.252,24.252,0,1,0,115.1,221,24.277,24.277,0,0,0,90.848,196.75Zm0,32.239A7.987,7.987,0,1,1,98.833,221,7.994,7.994,0,0,1,90.848,228.989Zm0,0" transform="translate(5.619 16.601)"/>
  <path id="Path_14714" data-name="Path 14714" d="M176.219,315.767a24.253,24.253,0,1,0-24.255-24.25A24.276,24.276,0,0,0,176.219,315.767Zm0-32.239a7.987,7.987,0,1,1-7.989,7.989A8,8,0,0,1,176.219,283.527Zm0,0" transform="translate(12.822 22.551)"/>
  <path id="Path_14715" data-name="Path 14715" d="M142.385,155A24.29,24.29,0,1,0,130.766,152,24.28,24.28,0,0,0,142.385,155Zm-2.207-31.93a8.048,8.048,0,0,1,2.249-.326,8,8,0,1,1-2.249.326Zm0,0" transform="translate(9.97 8.983)"/>
  <path id="Path_14716" data-name="Path 14716" d="M120.454,302.481A24.252,24.252,0,1,0,96.2,326.735,24.28,24.28,0,0,0,120.454,302.481ZM96.2,310.466a7.986,7.986,0,1,1,7.989-7.984A8,8,0,0,1,96.2,310.466Zm0,0" transform="translate(6.07 23.476)"/>
  <path id="Path_14717" data-name="Path 14717" d="M305.559,441.129a24.25,24.25,0,1,0-24.25-24.25A24.276,24.276,0,0,0,305.559,441.129Zm0-32.235a7.985,7.985,0,1,1-7.984,7.985A7.994,7.994,0,0,1,305.559,408.894Zm0,0" transform="translate(23.736 33.129)"/>
  <path id="Path_14718" data-name="Path 14718" d="M257.414,356.463a24.251,24.251,0,1,0-24.25-24.251A24.281,24.281,0,0,0,257.414,356.463Zm0-32.239a7.987,7.987,0,1,1-7.985,7.989,8,8,0,0,1,7.985-7.989Zm0,0" transform="translate(19.674 25.985)"/>
  <path id="Path_14719" data-name="Path 14719" d="M401.27,164.625A40.372,40.372,0,1,0,441.642,205,40.416,40.416,0,0,0,401.27,164.625Zm0,64.478A24.106,24.106,0,1,1,425.377,205,24.13,24.13,0,0,1,401.27,229.1Zm0,0" transform="translate(30.452 13.89)"/>
  <path id="Path_14720" data-name="Path 14720" d="M554.136,259.858A277.662,277.662,0,0,0,430.97,46.527a24.315,24.315,0,0,0-18.418-3.533A24.26,24.26,0,0,0,400.332,28.8a278.094,278.094,0,0,0-246.484,0,24.281,24.281,0,0,0-12.216,14.194,24.326,24.326,0,0,0-18.422,3.533A277.677,277.677,0,0,0,.048,259.858,24.416,24.416,0,0,0,6.219,277.6,24.4,24.4,0,0,0,.048,295.346a277.662,277.662,0,0,0,123.166,213.33,24.242,24.242,0,0,0,18.418,3.533,24.281,24.281,0,0,0,12.22,14.2,278.1,278.1,0,0,0,246.48,0,24.376,24.376,0,0,0,10.17-34L291.178,285.734h87.3v46.154a28.2,28.2,0,0,0,28.745,28.228,28.931,28.931,0,0,0,28.948-28.846V323.81a4.77,4.77,0,1,1,9.539,0v57.968a23.935,23.935,0,0,0,47.869,0V285.734h36.191a24.408,24.408,0,0,0,24.365-25.877ZM135.048,446.892c-9.065-7.616-15.186-19.633-23.924-30.036C102.4,406.469,91.63,398.387,85.679,388.1c-5.888-10.17-7.553-23.547-12.225-36.386-4.609-12.657-11.954-23.9-14.021-35.725-1.605-9.154,0-19.358.716-30.257H263L161.555,461.442c-9.759-4.812-19.311-8.506-26.508-14.55ZM59.433,239.211c2.067-11.822,9.412-23.068,14.021-35.725,4.676-12.852,6.337-26.212,12.225-36.386,5.947-10.285,16.723-18.371,25.445-28.753,8.747-10.42,14.855-22.416,23.924-30.036,7.2-6.045,16.753-9.742,26.512-14.554l42.795,74.128a8.134,8.134,0,0,0,14.089-8.133L175.635,85.606c8.988-6.04,16.931-12.47,25.856-15.719,10.984-4,24.441-3.308,37.958-5.672C252.665,61.9,265,56.62,277.089,56.62s24.428,5.278,37.644,7.595c13.517,2.364,26.978,1.673,37.958,5.672,8.921,3.249,16.859,9.675,25.856,15.719L277.089,261.335,237.42,192.621a8.134,8.134,0,0,0-14.089,8.133L263,269.468H60.154c-.716-10.9-2.325-21.1-.72-30.257ZM161.081,43.366a261.846,261.846,0,0,1,232.019,0,8.086,8.086,0,0,1,3.312,11.3L386.7,71.484c-8.955-6.1-17.638-12.945-28.448-16.88-13.546-4.931-27.94-4.172-40.715-6.413-12.386-2.165-25.64-7.836-40.448-7.836s-28.063,5.672-40.444,7.836c-12.771,2.241-27.169,1.478-40.719,6.413-10.806,3.935-19.468,10.768-28.444,16.88-.072-.123-9.709-16.812-9.709-16.812a.013.013,0,0,1,0-.008,8.088,8.088,0,0,1,3.312-11.3ZM16.283,260.878C21.374,180.176,64.724,105.1,132.24,60.056A8.09,8.09,0,0,1,143.7,62.822l9.709,16.816c-9.776,4.748-20.07,8.87-28.821,16.219-11.153,9.37-17.681,22.226-25.919,32.032-8.213,9.776-19.752,18.422-27.067,31.066-7.252,12.534-9.014,26.834-13.428,38.966-4.333,11.9-12.22,23.975-14.762,38.487-1.953,11.153-.343,22.154.436,33.061H24.408a8.111,8.111,0,0,1-8.124-8.59ZM132.24,495.142C64.725,450.1,21.375,375.025,16.283,294.32a8.11,8.11,0,0,1,8.129-8.586H43.846c-.779,10.924-2.389,21.908-.436,33.061,2.542,14.512,10.429,26.588,14.762,38.487,4.414,12.127,6.18,26.432,13.428,38.966,7.315,12.64,18.858,21.289,27.071,31.07,8.239,9.806,14.766,22.662,25.919,32.027,8.743,7.349,19.032,11.466,28.817,16.219L143.7,492.376a8.083,8.083,0,0,1-11.458,2.766ZM393.1,511.836a261.847,261.847,0,0,1-232.019,0,8.087,8.087,0,0,1-3.312-11.3l9.713-16.821c8.959,6.1,17.638,12.945,28.444,16.88a8.132,8.132,0,0,0,5.566-15.283c-8.921-3.249-16.863-9.675-25.856-15.724L277.091,293.866,378.548,469.591c-9,6.049-16.935,12.475-25.856,15.724-10.984,4-24.441,3.3-37.958,5.672-13.216,2.313-25.551,7.595-37.644,7.595-12.894,0-25.555-5.892-40.719-8.086a8.134,8.134,0,0,0-2.326,16.1c14.017,2.025,27.381,8.252,43.045,8.252,14.809,0,28.058-5.668,40.448-7.836,12.767-2.237,27.165-1.478,40.719-6.413,10.8-3.931,19.472-10.767,28.444-16.88l9.713,16.821a8.088,8.088,0,0,1-3.312,11.3Zm92.346-242.368a8.135,8.135,0,0,0-8.133,8.133V381.777a7.667,7.667,0,1,1-15.334,0V323.81a21.037,21.037,0,0,0-42.075,0v7.459c0,6.485-5.058,12.581-13.2,12.581a11.955,11.955,0,0,1-11.962-11.962l0-46.154h61.5a8.133,8.133,0,1,0,0-16.266H291.178L392.623,93.76c9.747,4.8,19.311,8.5,26.512,14.55,9.069,7.616,15.181,19.629,23.924,30.036,8.726,10.386,19.493,18.464,25.445,28.753,5.888,10.17,7.548,23.547,12.225,36.386,4.609,12.657,11.949,23.9,14.021,35.725,1.605,9.154,0,19.358-.72,30.257Zm44.324,0H510.338c.779-10.924,2.389-21.908.436-33.061-2.542-14.512-10.429-26.588-14.762-38.487-4.41-12.123-6.18-26.436-13.428-38.966-7.315-12.644-18.862-21.3-27.071-31.07-8.23-9.8-14.766-22.662-25.915-32.027-8.747-7.345-19.028-11.462-28.821-16.219l9.709-16.816a8.09,8.09,0,0,1,11.458-2.766C489.459,105.1,532.809,180.176,537.9,260.877a8.112,8.112,0,0,1-8.129,8.59Zm0,0" transform="translate(-0.001 -0.001)"/>
</svg>
