<svg xmlns="http://www.w3.org/2000/svg" width="15.574" height="19.483" viewBox="0 0 15.574 19.483">
  <g id="Layer_15" data-name="Layer 15" transform="translate(-4.793 21.48) rotate(-90)">
    <path id="패스_308" data-name="패스 308" d="M25.016,20.375a.7.7,0,0,0,.7-.7V17.516a2.65,2.65,0,0,0,0-5.12V5.516a.7.7,0,1,0-1.391,0V12.4a2.65,2.65,0,0,0,0,5.12v2.164a.7.7,0,0,0,.7.689Zm-1.273-5.419a1.273,1.273,0,1,1,1.273,1.273A1.273,1.273,0,0,1,23.743,14.956Z" transform="translate(-6.196 -0.008)"/>
    <path id="패스_309" data-name="패스 309" d="M14.834,20.367a.7.7,0,0,0,.7-.7V10.029a2.664,2.664,0,1,0-1.391,0v9.642A.7.7,0,0,0,14.834,20.367ZM13.561,7.476a1.273,1.273,0,1,1,1.273,1.266,1.273,1.273,0,0,1-1.273-1.266Z" transform="translate(-3.096)"/>
    <path id="패스_310" data-name="패스 310" d="M3.961,15.158v4.522a.7.7,0,1,0,1.391,0V15.158a2.65,2.65,0,0,0,0-5.12V5.516a.7.7,0,0,0-1.391,0v4.522a2.65,2.65,0,0,0,0,5.12Zm.7-3.833A1.273,1.273,0,1,1,3.39,12.6a1.273,1.273,0,0,1,1.266-1.273Z" transform="translate(0 -0.008)"/>
  </g>
</svg>
