<svg id="meeting-point" xmlns="http://www.w3.org/2000/svg" width="87.277" height="87.286" viewBox="0 0 87.277 87.286">
  <g id="Group_57" data-name="Group 57" transform="translate(18.538)">
    <g id="Group_56" data-name="Group 56">
      <path id="Path_77" data-name="Path 77" d="M133.846,0a25.08,25.08,0,0,0-19.473,40.883q.04.063.087.122L132.5,64.12a1.7,1.7,0,0,0,2.688,0l18.129-23.236.019-.024A25.078,25.078,0,0,0,133.846,0Zm16.806,38.758c-.022.027-.042.053-.062.081L133.845,60.3,117.27,39.065a1.733,1.733,0,0,0-.139-.194,21.67,21.67,0,1,1,33.52-.113Z" transform="translate(-108.767)"/>
    </g>
  </g>
  <g id="Group_59" data-name="Group 59" transform="translate(28.275 10.108)">
    <g id="Group_58" data-name="Group 58">
      <path id="Path_78" data-name="Path 78" d="M195.939,70.284a1.7,1.7,0,1,0-3.27.965,11.932,11.932,0,1,1-8.045-8.052,1.7,1.7,0,1,0,.968-3.269,15.342,15.342,0,1,0,10.347,10.357Z" transform="translate(-165.884 -59.293)"/>
    </g>
  </g>
  <g id="Group_61" data-name="Group 61" transform="translate(51.555 14.104)">
    <g id="Group_60" data-name="Group 60">
      <path id="Path_79" data-name="Path 79" d="M305.376,83.26l-.03-.03a1.7,1.7,0,0,0-2.411,2.411l.03.03a1.7,1.7,0,1,0,2.411-2.411Z" transform="translate(-302.436 -82.73)"/>
    </g>
  </g>
  <g id="Group_63" data-name="Group 63" transform="translate(0 48.79)">
    <g id="Group_62" data-name="Group 62">
      <path id="Path_80" data-name="Path 80" d="M69.853,289.447a1.7,1.7,0,1,0-1.066,3.238c9.46,3.113,15.107,7.777,15.107,12.477,0,3.974-4.1,7.994-11.244,11.031-7.714,3.278-18.008,5.083-28.985,5.083s-21.271-1.805-28.985-5.083c-7.146-3.036-11.244-7.057-11.244-11.031,0-3.328,2.87-6.708,8.082-9.519,5.507-2.969,13.305-5.12,21.959-6.056a1.7,1.7,0,1,0-.367-3.389c-9.082.982-17.325,3.27-23.211,6.444C3.441,296.126.027,300.455.027,305.162c0,5.487,4.731,10.518,13.32,14.168,8.127,3.453,18.894,5.354,30.318,5.354s22.192-1.9,30.318-5.354c8.59-3.65,13.32-8.681,13.32-14.168C87.3,298.825,80.943,293.1,69.853,289.447Z" transform="translate(-0.027 -286.189)"/>
    </g>
  </g>
  <g id="Group_65" data-name="Group 65" transform="translate(59.925 49.959)">
    <g id="Group_64" data-name="Group 64">
      <path id="Path_81" data-name="Path 81" d="M353.632,293.094l-.059-.012a1.7,1.7,0,0,0-.674,3.342l.059.012a1.7,1.7,0,1,0,.674-3.342Z" transform="translate(-351.531 -293.048)"/>
    </g>
  </g>
  <g id="Group_67" data-name="Group 67" transform="translate(27.371 56.085)">
    <g id="Group_66" data-name="Group 66">
      <path id="Path_82" data-name="Path 82" d="M163.956,330.353a1.705,1.705,0,0,0-2.006-1.338c-.038.008-.079.017-.117.028a1.7,1.7,0,1,0,2.123,1.31Z" transform="translate(-160.577 -328.982)"/>
    </g>
  </g>
  <g id="Group_69" data-name="Group 69" transform="translate(17.75 54.676)">
    <g id="Group_68" data-name="Group 68">
      <path id="Path_83" data-name="Path 83" d="M135.72,320.721a1.7,1.7,0,1,0-.266,3.4c11.13.872,17.058,4.127,17.058,6.141,0,.972-1.55,2.624-5.917,4.078a54.573,54.573,0,0,1-16.562,2.272,54.574,54.574,0,0,1-16.562-2.272c-4.368-1.454-5.917-3.106-5.917-4.078,0-.888,1.2-2.008,3.223-3a1.7,1.7,0,1,0-1.5-3.062c-4.243,2.076-5.134,4.44-5.134,6.058,0,6.407,13.024,9.759,25.889,9.759s25.888-3.352,25.889-9.759C155.92,324.386,145.038,321.45,135.72,320.721Z" transform="translate(-104.143 -320.716)"/>
    </g>
  </g>
</svg>
