<svg id="menu" xmlns="http://www.w3.org/2000/svg" width="95.088" height="68.675" viewBox="0 0 95.088 68.675">
  <path id="Path_13712" data-name="Path 13712" d="M91.127,130.592H3.962a3.962,3.962,0,1,1,0-7.924H91.127a3.962,3.962,0,1,1,0,7.924Zm0,0" transform="translate(0 -92.292)"/>
  <path id="Path_13713" data-name="Path 13713" d="M91.127,7.924H3.962A3.962,3.962,0,0,1,3.962,0H91.127a3.962,3.962,0,1,1,0,7.924Zm0,0"/>
  <path id="Path_13714" data-name="Path 13714" d="M91.127,253.256H3.962a3.962,3.962,0,0,1,0-7.924H91.127a3.962,3.962,0,0,1,0,7.924Zm0,0" transform="translate(0 -184.581)"/>
</svg>
