<svg id="XMLID_1284_" xmlns="http://www.w3.org/2000/svg" width="511.766" height="511.766" viewBox="0 0 511.766 511.766">
  <g id="XMLID_135_" transform="translate(0 0)">
    <path id="XMLID_136_" d="M265.27,232.6l-23.284,23.284a10,10,0,0,0,14.135,14.136l23.284-23.284A10,10,0,0,0,265.27,232.6Z" transform="translate(-0.124 -0.119)"/>
    <path id="XMLID_755_" d="M503.062,76.639A10,10,0,0,0,484.5,84.063a101.9,101.9,0,0,1-17.088,104.069L323.676,44.394A101.892,101.892,0,0,1,427.745,27.306a10,10,0,1,0,7.424-18.56A121.855,121.855,0,0,0,307.975,31.6,33.983,33.983,0,0,0,269.6,86.433l2.754,2.754a122.076,122.076,0,0,0-3.815,46.378L123.473,309.041a38.883,38.883,0,0,0,2.346,52.711l5.313,5.313L94.7,403.5a52.283,52.283,0,0,0,57.965,84.851l200.562-87.946a47.4,47.4,0,0,1,52.877,9.954c16.614,16.614,16.234,37.742,10.339,51.975s-20.566,29.441-44.062,29.441H231.465a9.995,9.995,0,1,0,0,19.99H372.376A67.682,67.682,0,1,0,345.195,382.1L144.632,470.046a32.293,32.293,0,0,1-35.8-52.41L145.267,381.2l4.788,4.788a38.885,38.885,0,0,0,52.712,2.345L376.272,243.244a121.409,121.409,0,0,0,46.355-3.785l2.747,2.748h0a33.983,33.983,0,0,0,54.836-38.376,121.846,121.846,0,0,0,22.852-127.19ZM189.943,373a19,19,0,0,1-25.753-1.146l-24.237-24.236a19,19,0,0,1-1.146-25.753l135.129-161.6a122.689,122.689,0,0,0,77.621,77.589ZM317.72,194.088a101.4,101.4,0,0,1-28.617-88.15L405.863,222.7A101.612,101.612,0,0,1,317.72,194.088ZM459.3,228.076a13.989,13.989,0,0,1-19.787,0h0L283.732,72.3a13.992,13.992,0,1,1,19.789-19.787L459.3,208.287a13.99,13.99,0,0,1,0,19.789Z" transform="translate(-0.041 0)"/>
    <path id="XMLID_760_" d="M91.952,100H123.4a54.034,54.034,0,0,0,53.972-53.972,10,10,0,0,0-9.995-9.995H109.11A37.19,37.19,0,0,0,71.963,73.18v57.55a45.958,45.958,0,1,0,19.99,37.9Zm0-26.819A17.177,17.177,0,0,1,109.11,56.022h46.777A34.043,34.043,0,0,1,123.4,80.009H91.952ZM45.976,194.617A25.987,25.987,0,1,1,71.963,168.63,26.015,26.015,0,0,1,45.976,194.617Z" transform="translate(0 -0.019)"/>
    <path id="XMLID_762_" d="M469.185,52.832A10,10,0,1,0,462.12,49.9,10.066,10.066,0,0,0,469.185,52.832Z" transform="translate(-0.239 -0.017)"/>
  </g>
</svg>
