<svg id="teamwork_1_" data-name="teamwork (1)" xmlns="http://www.w3.org/2000/svg" width="105.221" height="105.169" viewBox="0 0 105.221 105.169">
  <path id="Path_14417" data-name="Path 14417" d="M316.565,417.261a1.541,1.541,0,0,0-1.541,1.541v4.591a12.779,12.779,0,0,1-3.044,8.274,1.541,1.541,0,0,0-.368,1v2.5a1.541,1.541,0,1,0,3.083,0v-1.951a15.864,15.864,0,0,0,3.411-9.823V418.8A1.541,1.541,0,0,0,316.565,417.261Z" transform="translate(-247.576 -331.54)"/>
  <path id="Path_14418" data-name="Path 14418" d="M183.724,250.342a4.924,4.924,0,0,0-1.974.412A4.951,4.951,0,0,0,175,247.2a4.95,4.95,0,0,0-9.194-1.921,4.95,4.95,0,0,0-7.5,4.246V265.7l-.315-.468a5.072,5.072,0,0,0-9.048,4.348l2.743,8.7.746,4.587a16.537,16.537,0,0,0,6.914,10.925v2.781a1.541,1.541,0,0,0,3.083,0v-3.016a2.634,2.634,0,0,0-1.173-2.194,13.44,13.44,0,0,1-5.782-8.99l-.764-4.7a1.553,1.553,0,0,0-.051-.216l-2.776-8.809a1.989,1.989,0,0,1,3.55-1.7c1.426,2.121,3.134,4.667,3.134,4.667a1.541,1.541,0,0,0,2.821-.858V249.521a1.87,1.87,0,1,1,3.74,0v21.235a1.541,1.541,0,0,0,3.083,0V247.77a1.87,1.87,0,0,1,3.74,0v22.986a1.541,1.541,0,0,0,3.083,0V251.767a1.87,1.87,0,0,1,3.74,0v18.989a1.541,1.541,0,0,0,3.082,0V255.291a1.87,1.87,0,0,1,3.74,0v18.271a1.541,1.541,0,1,0,3.083,0V255.295A4.958,4.958,0,0,0,183.724,250.342Z" transform="translate(-118.146 -192.944)"/>
  <path id="Path_14419" data-name="Path 14419" d="M87.81,50.862a4.916,4.916,0,0,0,2.705.836h.051a4.948,4.948,0,0,0,4.558-3.023,4.946,4.946,0,0,0,7.907-5.059,4.953,4.953,0,0,0,2.387-8.285L94.1,23.779l.553.114a5.071,5.071,0,0,0,3.418-9.439l-8.05-4.3L86.275,7.4A16.538,16.538,0,0,0,73.689,4.442L69.916.592a1.541,1.541,0,0,0-2.2,2.158l4.349,4.437a1.54,1.54,0,0,0,1.386.436l.577-.109A13.441,13.441,0,0,1,84.448,9.888l3.833,2.82a1.55,1.55,0,0,0,.188.118l8.149,4.348a1.989,1.989,0,0,1-1.344,3.7c-2.5-.516-5.5-1.139-5.505-1.139a1.541,1.541,0,0,0-1.414,2.588l14.864,15.166a1.87,1.87,0,0,1-.027,2.644,1.816,1.816,0,0,1-1.328.534,1.856,1.856,0,0,1-1.316-.561L85.684,24.941a1.541,1.541,0,0,0-2.2,2.158L99.571,43.515A1.87,1.87,0,1,1,96.9,46.133L80.811,29.717a1.541,1.541,0,0,0-2.2,2.158L91.9,45.437a1.872,1.872,0,0,1-.027,2.644,1.87,1.87,0,0,1-2.644-.026L75.939,34.492a1.541,1.541,0,1,0-2.2,2.158L84.559,47.692a1.87,1.87,0,1,1-2.671,2.618l-12.8-13.063a1.541,1.541,0,1,0-2.2,2.158l12.8,13.063a4.946,4.946,0,0,0,8.123-1.606Z" transform="translate(-52.789 -0.129)"/>
  <path id="Path_14420" data-name="Path 14420" d="M8.447,98.252a12.778,12.778,0,0,1-3.617-8.039,1.541,1.541,0,0,0-.437-.971L2.642,87.456a1.541,1.541,0,1,0-2.2,2.158l1.365,1.393a15.863,15.863,0,0,0,4.44,9.4l3.18,3.245a1.541,1.541,0,0,0,2.2-2.158Z" transform="translate(0 -69.143)"/>
  <path id="Path_14421" data-name="Path 14421" d="M403.667,79.965a1.542,1.542,0,0,0-2.18-.022l-2.154,2.111a2.634,2.634,0,0,0-.746,2.373,13.441,13.441,0,0,1-2.374,10.422l-2.82,3.833a1.551,1.551,0,0,0-.118.188l-4.348,8.149a1.989,1.989,0,0,1-3.7-1.344c.517-2.5,1.139-5.5,1.139-5.505a1.541,1.541,0,0,0-2.588-1.414l-7.121,6.979a1.541,1.541,0,0,0,2.158,2.2l3.507-3.437c-.039.186-.077.371-.114.553a5.071,5.071,0,0,0,9.439,3.418l4.3-8.051,2.754-3.743a16.539,16.539,0,0,0,2.963-12.585l1.986-1.947A1.541,1.541,0,0,0,403.667,79.965Z" transform="translate(-298.886 -63.191)"/>
  <path id="Path_14422" data-name="Path 14422" d="M278.992,47.285l-3.339,3.272a1.87,1.87,0,0,1-2.619-2.67L288.2,33.022a1.541,1.541,0,0,0-2.158-2.2L270.878,45.684h0l-1.249,1.225a1.87,1.87,0,1,1-2.618-2.671l16.416-16.089a1.541,1.541,0,1,0-2.158-2.2L267.706,39.24a1.87,1.87,0,1,1-2.618-2.671L278.65,23.277a1.541,1.541,0,0,0-2.158-2.2L265.448,31.9a1.87,1.87,0,0,1-2.616-2.673L283.9,8.575a12.779,12.779,0,0,1,8.039-3.617,1.542,1.542,0,0,0,.971-.437L294.7,2.77a1.541,1.541,0,0,0-2.158-2.2l-1.393,1.365a15.866,15.866,0,0,0-9.4,4.439L260.675,27.025a4.95,4.95,0,0,0,1.605,8.125,4.948,4.948,0,0,0,2.186,7.312,4.95,4.95,0,0,0,3.853,8.062,4.982,4.982,0,0,0,1.215-.156,4.933,4.933,0,0,0,4.761,3.8h.051a4.919,4.919,0,0,0,3.465-1.415l3.339-3.272a1.541,1.541,0,1,0-2.158-2.2Z" transform="translate(-205.927 -0.128)"/>
</svg>
