<svg id="time" xmlns="http://www.w3.org/2000/svg" width="85.16" height="91.566" viewBox="0 0 85.16 91.566">
  <ellipse id="Ellipse_4" data-name="Ellipse 4" cx="1.797" cy="1.797" rx="1.797" ry="1.797" transform="translate(67.001 15.858)"/>
  <ellipse id="Ellipse_5" data-name="Ellipse 5" cx="1.797" cy="1.797" rx="1.797" ry="1.797" transform="translate(48.078 6.942)"/>
  <ellipse id="Ellipse_6" data-name="Ellipse 6" cx="1.797" cy="1.797" rx="1.797" ry="1.797" transform="translate(54.873 8.799)"/>
  <ellipse id="Ellipse_7" data-name="Ellipse 7" cx="1.797" cy="1.797" rx="1.797" ry="1.797" transform="translate(61.242 11.804)"/>
  <ellipse id="Ellipse_8" data-name="Ellipse 8" cx="1.797" cy="1.797" rx="1.797" ry="1.797" transform="translate(71.982 20.837)"/>
  <ellipse id="Ellipse_9" data-name="Ellipse 9" cx="1.797" cy="1.797" rx="1.797" ry="1.797" transform="translate(76.038 26.594)"/>
  <ellipse id="Ellipse_10" data-name="Ellipse 10" cx="1.797" cy="1.797" rx="1.797" ry="1.797" transform="translate(79.044 32.963)"/>
  <ellipse id="Ellipse_11" data-name="Ellipse 11" cx="1.797" cy="1.797" rx="1.797" ry="1.797" transform="translate(80.905 39.768)"/>
  <path id="Path_319" data-name="Path 319" d="M61.93,121.5a42.642,42.642,0,0,1,0-85.285,1.8,1.8,0,1,1,0,3.594,39.048,39.048,0,1,0,39.048,39.049h0a1.8,1.8,0,0,1,3.594,0A42.691,42.691,0,0,1,61.93,121.5Z" transform="translate(-19.412 -29.933)"/>
  <path id="Path_320" data-name="Path 320" d="M212.815,17.426a1.8,1.8,0,0,1-1.271-3.068l5.016-5.016-5.016-5.016a1.8,1.8,0,0,1,2.541-2.542l6.287,6.287a1.8,1.8,0,0,1,0,2.542L214.086,16.9a1.79,1.79,0,0,1-1.271.527Z" transform="translate(-176.583 -1.263)"/>
  <path id="Path_321" data-name="Path 321" d="M168.963,188.251a1.791,1.791,0,0,1-1.27-.526l-17.272-17.271a1.8,1.8,0,0,1,2.542-2.542l16,16,7.087-7.086a1.8,1.8,0,0,1,2.542,2.542l-8.357,8.357A1.792,1.792,0,0,1,168.963,188.251Z" transform="translate(-126.445 -137.531)"/>
</svg>
