<svg id="warning-sign" xmlns="http://www.w3.org/2000/svg" width="111.576" height="99.446" viewBox="0 0 111.576 99.446">
  <path id="Path_326" data-name="Path 326" d="M104.065,105.6H13.524A10.517,10.517,0,0,1,4.415,89.83L49.686,11.418a10.518,10.518,0,0,1,18.218,0L113.174,89.83a10.517,10.517,0,0,1-9.109,15.775Zm-45.271-95.6a6.6,6.6,0,0,0-5.775,3.335L7.749,91.754a6.669,6.669,0,0,0,5.775,10h90.541a6.669,6.669,0,0,0,5.775-10L64.57,13.342a6.6,6.6,0,0,0-5.775-3.335Z" transform="translate(-3.007 -6.158)"/>
  <path id="Path_327" data-name="Path 327" d="M34.773,61.643A5.779,5.779,0,0,1,29,55.87V28.932a5.773,5.773,0,1,1,11.545,0V55.87a5.779,5.779,0,0,1-5.773,5.773Zm0-34.635a1.926,1.926,0,0,0-1.924,1.924V55.87a1.924,1.924,0,1,0,3.848,0V28.932A1.926,1.926,0,0,0,34.773,27.008Z" transform="translate(21.015 9.554)"/>
  <path id="Path_328" data-name="Path 328" d="M34.773,55.7a5.773,5.773,0,1,1,5.773-5.773A5.773,5.773,0,0,1,34.773,55.7Zm0-7.7A1.924,1.924,0,1,0,36.7,49.932a1.924,1.924,0,0,0-1.924-1.924Z" transform="translate(21.015 28.961)"/>
</svg>
